# xmcd CD database file
#
# Track frame offsets:
#	150
#	12385
#	33440
#	52598
#	66527
#	80239
#	93944
#	109806
#	123049
#	135269
#	147584
#	163076
#	178061
#	191861
#	205493
#	217369
#	231176
#	245133
#	257798
#	273491
#	287210
#	301147
#	315488
#	328015
#	340669
#
# Disc length: 4732 seconds
#
# Revision: 0
# Processed by: cddbd v1.5.1PL0 Copyright (c) Steve Scherf et al.
# Submitted via: CDex 1.51
#
DISCID=84127a19
DTITLE=Roy Eldridge - Disc Two: The Gasser
DYEAR=1941
DGENRE=Jazz
TTITLE0=Smack!
TTITLE1=I surrender, dear
TTITLE2=I can't believe that you're in love with me
TTITLE3=Let me off uptown
TTITLE4=Rockin' chair
TTITLE5=Ball of fire
TTITLE6=Royal flush
TTITLE7=The gasser
TTITLE8=Jump through the window
TTITLE9=Minor jive
TTITLE10=Tea for two
TTITLE11=Don't be that way
TTITLE12=I want to be happy
TTITLE13=Fiesta in brass
TTITLE14=St. Louis blues
TTITLE15=After you've gone
TTITLE16=The sad sack
TTITLE17=Little Jazz boogie
TTITLE18=Embraceable you
TTITLE19=Little Jazz
TTITLE20=Just floatin' along
TTITLE21=Scuttlebutt
TTITLE22=All the cats join in
TTITLE23=Tippin' out
TTITLE24=Lover, come back to me
EXTD=YEAR: 1941
EXTT0=
EXTT1=
EXTT2=
EXTT3=
EXTT4=
EXTT5=
EXTT6=
EXTT7=
EXTT8=
EXTT9=
EXTT10=
EXTT11=
EXTT12=
EXTT13=
EXTT14=
EXTT15=
EXTT16=
EXTT17=
EXTT18=
EXTT19=
EXTT20=
EXTT21=
EXTT22=
EXTT23=
EXTT24=
PLAYORDER=
